<?xml version="1.0" encoding="UTF-8" standalone="no"?>
<!-- Created with Inkscape (http://www.inkscape.org/) -->

<svg
   width="297mm"
   height="297mm"
   viewBox="0 0 297 297"
   version="1.1"
   id="svg1"
   inkscape:version="1.3.2 (091e20e, 2023-11-25, custom)"
   sodipodi:docname="initialLogo.svg"
   xmlns:inkscape="http://www.inkscape.org/namespaces/inkscape"
   xmlns:sodipodi="http://sodipodi.sourceforge.net/DTD/sodipodi-0.dtd"
   xmlns="http://www.w3.org/2000/svg"
   xmlns:svg="http://www.w3.org/2000/svg">
  <sodipodi:namedview
     id="namedview1"
     pagecolor="#ffffff"
     bordercolor="#000000"
     borderopacity="0.25"
     inkscape:showpageshadow="2"
     inkscape:pageopacity="0.0"
     inkscape:pagecheckerboard="0"
     inkscape:deskcolor="#d1d1d1"
     inkscape:document-units="mm"
     inkscape:zoom="0.49575348"
     inkscape:cx="534.53987"
     inkscape:cy="614.21657"
     inkscape:window-width="1920"
     inkscape:window-height="1001"
     inkscape:window-x="-9"
     inkscape:window-y="-9"
     inkscape:window-maximized="1"
     inkscape:current-layer="layer1" />
  <defs
     id="defs1" />
  <g
     inkscape:label="Layer 1"
     inkscape:groupmode="layer"
     id="layer1">
    <path
       id="path16"
       style="fill:#ffffff;stroke-width:5.61149;paint-order:fill markers stroke"
       d="m 194.01942,3.5 -26.71784,57.256995 c -5.62022,-1.20393 -11.45844,-1.832566 -17.53012,-1.832566 -8.48223,0 -16.45486,1.19067 -23.91926,3.56575 -7.29473,2.205328 -13.74309,5.51206 -19.3414,9.922785 -5.42862,4.410724 -9.753857,9.840588 -12.977074,16.287161 -3.223297,6.446515 -4.833597,13.741235 -4.833597,21.884235 0,10.00904 2.20567,18.15025 6.616404,24.42708 4.580408,6.27689 10.261327,11.45206 17.047127,15.52355 6.73764,3.87413 14.06473,7.07769 21.97303,9.61386 l -12.74981,38.43063 c -4.39127,-3.68354 -8.07055,-8.31378 -11.00252,-13.94315 L 81.827998,203.7185 c 7.529415,11.54505 17.296879,20.35571 29.281972,26.45495 l -5.60779,37.63507 12.78892,-34.4458 10.01521,-30.19121 13.48852,-40.66799 10.26023,-30.93344 c -1.60295,-0.54843 -3.2848,-1.10833 -4.82645,-1.6479 -0.87961,-0.32988 -1.68968,-0.67351 -2.53225,-1.01219 -5.65735,-2.27219 -10.53176,-4.72569 -14.51846,-7.38351 -4.41072,-3.22322 -6.61639,-7.46591 -6.61639,-12.72499 0,-5.76792 2.54635,-10.433897 7.63566,-13.996416 5.08939,-3.562586 11.36561,-5.341409 18.83001,-5.341409 2.5882,0 5.09469,0.23367 7.51849,0.703206 2.58634,0.501007 5.07318,1.282894 7.47231,2.319131 l 9.84828,-29.693979 z m -1.02284,24.032866 -14.03195,36.718814 -10.0649,30.184069 -12.84217,38.501621 -10.27795,30.81977 c 2.5592,0.8511 4.95957,1.72481 7.37643,2.59618 1.14559,0.41304 2.37392,0.81473 3.48755,1.23238 6.7858,2.37494 12.38418,5.17241 16.79497,8.39571 4.58041,3.0536 6.86856,7.38241 6.86856,12.98064 0,6.10721 -2.71487,11.02425 -8.14356,14.75645 -5.42862,3.56245 -12.21423,5.34498 -20.35708,5.34498 -4.25507,0 -8.38168,-0.51339 -12.38047,-1.5378 -2.51638,-0.64465 -4.97572,-1.51375 -7.39066,-2.56421 l -9.94059,29.81116 -17.81781,58.72737 25.32916,-56.53256 c 7.11377,1.73841 14.5071,2.63171 22.20037,2.63171 8.82146,0 17.05228,-1.1871 24.68631,-3.56218 7.80363,-2.37501 14.50312,-5.76786 20.10142,-10.17858 5.76798,-4.41079 10.2653,-9.92306 13.48854,-16.53925 3.3929,-6.61613 5.08925,-14.083 5.08925,-22.39562 0,-10.00911 -2.29165,-18.15024 -6.87206,-24.42714 -4.4108,-6.44652 -10.00917,-11.62175 -16.79498,-15.52356 -6.78581,-4.07143 -14.16664,-7.29562 -22.13996,-9.67063 -2.0353,-0.64945 -3.91983,-1.27932 -5.87775,-1.91785 l 12.03954,-36.100845 c 3.049,2.833285 5.66578,6.253735 7.83462,10.281605 L 212.11777,90.479358 C 205.48866,80.369988 196.81881,72.707592 186.14218,67.455116 Z" />
  </g>
</svg>
