<?xml version="1.0" encoding="UTF-8" standalone="no"?>
<!-- Created with Inkscape (http://www.inkscape.org/) -->

<svg
   width="297mm"
   height="110mm"
   viewBox="0 0 297 110"
   version="1.1"
   id="svg1"
   xml:space="preserve"
   inkscape:version="1.3.2 (091e20e, 2023-11-25, custom)"
   sodipodi:docname="splittedLogo.svg"
   xmlns:inkscape="http://www.inkscape.org/namespaces/inkscape"
   xmlns:sodipodi="http://sodipodi.sourceforge.net/DTD/sodipodi-0.dtd"
   xmlns="http://www.w3.org/2000/svg"
   xmlns:svg="http://www.w3.org/2000/svg"><sodipodi:namedview
     id="namedview1"
     pagecolor="#ffffff"
     bordercolor="#000000"
     borderopacity="0.25"
     inkscape:showpageshadow="2"
     inkscape:pageopacity="0.0"
     inkscape:pagecheckerboard="0"
     inkscape:deskcolor="#d1d1d1"
     inkscape:document-units="mm"
     inkscape:zoom="0.52231671"
     inkscape:cx="806.02438"
     inkscape:cy="506.39774"
     inkscape:window-width="1920"
     inkscape:window-height="1001"
     inkscape:window-x="-9"
     inkscape:window-y="-9"
     inkscape:window-maximized="1"
     inkscape:current-layer="layer1" /><defs
     id="defs1"><clipPath
       clipPathUnits="userSpaceOnUse"
       id="clipPath2"><rect
         style="opacity:1;fill:#000000;fill-opacity:1;stroke-width:0.245031;paint-order:fill markers stroke"
         id="rect3"
         width="31.488266"
         height="52.086449"
         x="42.162251"
         y="60.257275" /></clipPath></defs><g
     inkscape:label="Layer 1"
     inkscape:groupmode="layer"
     id="layer1"><path
       id="path16"
       style="fill:#currentColor;stroke-width:2.09002;paint-order:fill markers stroke"
       d="m 45.28611,0.99423 -9.95116,21.325575 c -2.093273,-0.448407 -4.267736,-0.682545 -6.529159,-0.682545 -3.159233,0 -6.128677,0.443446 -8.90882,1.328054 -2.716948,0.821383 -5.118666,2.053014 -7.203746,3.695801 -2.021909,1.642796 -3.6328841,3.665141 -4.8333845,6.066194 -1.2005268,2.401024 -1.8002907,5.117992 -1.8002907,8.150865 0,3.727896 0.8215114,6.760144 2.4643028,9.097974 1.7059914,2.337862 3.8218704,4.265362 6.3492634,5.781812 2.509457,1.44293 5.238465,2.63611 8.183937,3.58072 l -4.748706,14.3136 C 16.672796,72.28033 15.302434,70.55581 14.210413,68.45913 L 3.5,75.56632 c 2.8043596,4.3 6.4423129,7.58159 10.906207,9.85328 l -2.088664,14.01732 4.763274,-12.8295 3.730201,-11.2448 5.023854,-15.14696 3.821458,-11.521283 c -0.597029,-0.204259 -1.223438,-0.412776 -1.797629,-0.613736 -0.327622,-0.122874 -0.6293,-0.250854 -0.943125,-0.377 -2.107099,-0.846282 -3.922616,-1.760124 -5.407474,-2.75001 -1.642797,-1.200502 -2.464307,-2.780709 -2.464307,-4.739469 0,-2.148285 0.948398,-3.886146 2.843933,-5.213019 1.895565,-1.326901 4.233161,-1.989429 7.013313,-1.989429 0.963982,0 1.897528,0.087 2.800287,0.261908 0.963288,0.186606 1.889521,0.477797 2.783082,0.863751 L 38.152442,23.077759 Z M 44.905145,9.945359 39.678896,23.621417 35.930182,34.863584 31.147077,49.203654 27.319008,60.6826 c 0.953183,0.31698 1.847213,0.64238 2.747384,0.96693 0.426681,0.15383 0.884178,0.30344 1.298946,0.459 2.527404,0.88456 4.612533,1.92649 6.255349,3.12701 1.705991,1.13733 2.55822,2.74964 2.55822,4.83472 0,2.27465 -1.011153,4.10599 -3.033087,5.49606 -2.021916,1.32685 -4.549241,1.99076 -7.582075,1.99076 -1.584816,0 -3.121786,-0.19121 -4.611156,-0.57275 -0.937237,-0.24011 -1.853227,-0.56379 -2.752676,-0.95503 l -3.702402,11.10327 -6.636313,21.8732 9.433934,-21.05573 c 2.649556,0.64748 5.403228,0.98016 8.268613,0.98016 3.285583,0 6.351215,-0.44211 9.194533,-1.32672 2.906493,-0.88459 5.401714,-2.14825 7.486824,-3.79105 2.148304,-1.64282 3.823352,-3.69588 5.023854,-6.1601 1.263697,-2.46421 1.895536,-5.2453 1.895536,-8.34135 0,-3.72794 -0.853557,-6.76011 -2.559548,-9.09796 -1.642825,-2.40103 -3.727955,-4.32857 -6.255358,-5.78181 -2.527394,-1.51642 -5.276419,-2.71731 -8.246107,-3.60189 -0.758052,-0.24189 -1.459949,-0.47646 -2.189158,-0.71429 l 4.484162,-13.445879 c 1.135609,1.055258 2.110223,2.329198 2.918015,3.829387 L 52.026911,33.390013 C 49.557868,29.624739 46.328753,26.770856 42.352198,24.814547 Z M 60.025648,32.673088 V 78.18408 H 68.93313 V 63.42601 h 6.046353 c 2.600656,0 4.962193,-0.30325 7.086057,-0.91008 2.167218,-0.65013 3.987989,-1.60414 5.461687,-2.86113 1.517061,-1.30033 2.687079,-2.90373 3.510611,-4.81089 0.823551,-1.95047 1.235458,-4.22609 1.235458,-6.826776 0,-2.600665 -0.476332,-4.854814 -1.429895,-6.76197 -0.910229,-1.907135 -2.210405,-3.48908 -3.900832,-4.746079 -1.690436,-1.300323 -3.72857,-2.254296 -6.112497,-2.861128 -2.383927,-0.650167 -5.048685,-0.974869 -7.996101,-0.974869 z m 37.838965,0 V 78.18408 H 126.34239 V 70.3176 h -19.6351 V 32.673088 Z m 34.718587,0 V 78.18408 h 8.84267 V 32.673088 Z m 13.71838,0 v 7.86646 h 12.67869 V 78.18408 h 8.90749 V 40.539548 h 12.67866 v -7.86646 z m 36.34425,0 v 7.86646 H 195.3245 V 78.18408 h 8.90749 V 40.539548 h 12.67869 v -7.86646 z m 39.20536,0 V 78.18408 h 29.45267 V 70.3176 H 230.69387 V 57.8995 h 15.92872 v -7.8678 h -15.92872 v -9.492152 h 20.60999 v -7.86646 z m 36.08368,0 V 78.18408 h 14.82421 c 3.12076,0 5.95996,-0.45488 8.51726,-1.36509 2.55733,-0.9536 4.74574,-2.36245 6.5662,-4.22622 1.82047,-1.90717 3.20785,-4.29147 4.16141,-7.1522 0.99694,-2.86072 1.49605,-6.1977 1.49605,-10.01199 0,-3.81432 -0.49911,-7.151276 -1.49605,-10.012004 -0.95356,-2.860727 -2.34094,-5.223564 -4.16141,-7.087355 -1.82046,-1.907165 -4.00887,-3.315999 -6.5662,-4.226228 -2.5573,-0.953592 -5.3965,-1.429905 -8.51726,-1.429905 z m -189.00174,7.86646 h 4.681264 c 3.12079,0 5.50377,0.62928 7.150863,1.886269 1.690426,1.213636 2.535742,3.077349 2.535742,5.591317 0,2.557326 -0.845316,4.463966 -2.535742,5.720956 -1.647093,1.21364 -4.030073,1.82011 -7.150863,1.82011 H 68.93313 Z m 197.84441,0 h 6.5662 c 3.59756,0 6.35085,1.235771 8.25799,3.706395 1.9505,2.427271 2.92597,6.154707 2.92597,11.182637 0,4.98458 -0.97547,8.71202 -2.92597,11.18264 -1.90714,2.47061 -4.66043,3.70638 -8.25799,3.70638 h -6.5662 z" /></g></svg>
